<svg xmlns="http://www.w3.org/2000/svg" aria-hidden="true" style="position:absolute;width:0;height:0;overflow:hidden">
    <defs>
        <symbol id="icon-chocolate-logo" viewBox="0 0 32 32">
            <path d="M3.944 20.076 14.721 2.652l.64-.674 8.236 5.491.056 3.314 2.01 3.28-8.88 14.077-12.839-8.063z" />
            <path stroke-linecap="round" stroke-linejoin="round" stroke-width="2.6667"
                d="M21.635 23.88 7.45 15.016m3.911-6.417 14.186 8.864M10.63 25.864l11.736-19.25m4.81 8.175c-3.04-1.899-4.234-3.384-2.278-6.592l-9.626-6.015-11.736 19.25 14.185 8.864 9.454-15.507z" />
        </symbol>
        <symbol id="icon-coin" viewBox="0 0 32 32">
            <path
                d="M16 2.667c-7.333 0-13.333 6-13.333 13.333s6 13.333 13.333 13.333 13.333-6 13.333-13.333S23.333 2.667 16 2.667zm0 24c-5.867 0-10.667-4.8-10.667-10.667S10.133 5.333 16 5.333 26.667 10.133 26.667 16 21.867 26.667 16 26.667z" />
            <path
                d="M17.733 14.667h-3.467c-.667 0-1.2-.533-1.2-1.2s.533-1.2 1.2-1.2h4.933c.8 0 1.333-.533 1.333-1.333s-.533-1.333-1.333-1.333h-1.867v-1.2c0-.8-.533-1.333-1.333-1.333s-1.333.533-1.333 1.333v1.2h-.4c-2.133 0-3.867 1.733-3.867 3.867s1.733 3.867 3.867 3.867h3.333c.667 0 1.2.533 1.2 1.2s-.533 1.2-1.2 1.2h-4.933c-.8 0-1.333.533-1.333 1.333s.533 1.333 1.333 1.333h2v1.2c0 .8.533 1.333 1.333 1.333s1.333-.533 1.333-1.333v-1.2h.4c2.133 0 3.867-1.733 3.867-3.867s-1.733-3.867-3.867-3.867z" />
        </symbol>
        <symbol id="icon-down" viewBox="0 0 32 32">
            <path
                d="M16.947 17.867c-.124.125-.271.224-.434.292s-.337.103-.513.103-.35-.035-.513-.103c-.162-.068-.31-.167-.434-.292l-6.107-6.12c-.124-.125-.271-.224-.434-.292s-.337-.103-.513-.103-.35.035-.513.103-.31.167-.434.292c-.248.25-.388.588-.388.94s.139.69.388.94l6.12 6.12c.75.749 1.767 1.17 2.827 1.17s2.077-.421 2.827-1.17l6.12-6.12c.246-.248.385-.584.387-.933.001-.175-.033-.349-.099-.512s-.164-.31-.288-.435c-.124-.125-.271-.224-.434-.292s-.337-.103-.513-.103-.35.035-.513.103c-.162.068-.31.167-.434.292l-6.107 6.12z" />
        </symbol>
        <symbol id="icon-chocolate" viewBox="0 0 32 32">
            <path
                d="m13.822 2.413 7.527 7.536.08-.08c.158-.154.369-.242.589-.244s.434.08.595.231l.873.873c.305.305.315.77.083 1.094l-.004.007-.143.192 6.16 6.16c.55.55.55 1.43 0 1.98l-9.43 9.43c-.55.55-1.43.55-1.98 0l-4.447-4.447c-.074.093-.167.169-.272.224s-.221.086-.34.093c-.119.007-.237-.012-.348-.054s-.212-.108-.296-.192l-2.6-2.6c-.154-.158-.242-.369-.244-.589s.08-.434.231-.595l.006-.007.077-.076-7.527-7.527c-.55-.55-.55-1.43 0-1.98l9.43-9.43c.55-.55 1.43-.55 1.98 0v.001zm6.582 8.48-1.756-1.755c-.055-.057-.121-.102-.194-.133s-.151-.047-.231-.047-.158.016-.231.047c-.073.031-.139.076-.194.133l-3.58 3.58c-.057.056-.102.123-.133.197s-.046.153-.046.233.016.159.046.233c.031.074.076.141.133.197l1.749 1.749.61-.61-1.565-1.565 3.21-3.22 1.569 1.574.613-.613zm-5.075 5.073-1.754-1.754c-.055-.057-.121-.102-.194-.133s-.152-.047-.231-.047-.158.016-.231.047c-.073.031-.139.076-.194.133l-3.59 3.59c-.24.23-.24.61 0 .85l1.752 1.752.616-.616-1.57-1.564 3.22-3.21 1.564 1.563.612-.611zM8.822 8.194l3.58 3.58c.24.24.62.24.85-.01l3.58-3.58c.057-.054.102-.119.133-.192s.047-.15.047-.228h.01c0-.15-.06-.31-.18-.43l-3.58-3.58c-.056-.057-.123-.102-.197-.133s-.153-.047-.233-.047c-.08 0-.159.016-.233.047s-.141.076-.197.133l-3.58 3.59c-.24.23-.24.61 0 .85zm-5.07 5.07 3.58 3.58c.24.24.62.24.85 0l3.58-3.58c.058-.055.104-.122.135-.196s.046-.154.045-.234h.01c0-.16-.06-.31-.18-.43l-3.58-3.58c-.055-.057-.121-.102-.194-.133s-.151-.047-.231-.047c-.079 0-.158.016-.231.047s-.139.076-.194.133l-3.59 3.59c-.24.23-.24.61 0 .85zm6.933 8.753 2.362 2.363 9.636-13.04-.655-.655-11.343 11.332z" />
            <path
                d="m13.822 2.413 7.527 7.536.08-.08c.158-.154.369-.242.589-.244s.434.08.595.231l.873.873c.305.305.315.77.083 1.094l-.004.007-.143.192 6.16 6.16c.55.55.55 1.43 0 1.98l-9.43 9.43c-.55.55-1.43.55-1.98 0l-4.447-4.447c-.074.093-.167.169-.272.224s-.221.086-.34.093c-.119.007-.237-.012-.348-.054s-.212-.108-.296-.192l-2.6-2.6c-.154-.158-.242-.369-.244-.589s.08-.434.231-.595l.006-.007.077-.076-7.527-7.527c-.55-.55-.55-1.43 0-1.98l9.43-9.43c.55-.55 1.43-.55 1.98 0v.001zm6.582 8.48-1.756-1.755c-.055-.057-.121-.102-.194-.133s-.151-.047-.231-.047-.158.016-.231.047c-.073.031-.139.076-.194.133l-3.58 3.58c-.057.056-.102.123-.133.197s-.046.153-.046.233.016.159.046.233c.031.074.076.141.133.197l1.749 1.749.61-.61-1.565-1.565 3.21-3.22 1.569 1.574.613-.613zm-5.075 5.073-1.754-1.754c-.055-.057-.121-.102-.194-.133s-.152-.047-.231-.047-.158.016-.231.047c-.073.031-.139.076-.194.133l-3.59 3.59c-.24.23-.24.61 0 .85l1.752 1.752.616-.616-1.57-1.564 3.22-3.21 1.564 1.563.612-.611zM8.822 8.194l3.58 3.58c.24.24.62.24.85-.01l3.58-3.58c.057-.054.102-.119.133-.192s.047-.15.047-.228h.01c0-.15-.06-.31-.18-.43l-3.58-3.58c-.056-.057-.123-.102-.197-.133s-.153-.047-.233-.047c-.08 0-.159.016-.233.047s-.141.076-.197.133l-3.58 3.59c-.24.23-.24.61 0 .85zm-5.07 5.07 3.58 3.58c.24.24.62.24.85 0l3.58-3.58c.058-.055.104-.122.135-.196s.046-.154.045-.234h.01c0-.16-.06-.31-.18-.43l-3.58-3.58c-.055-.057-.121-.102-.194-.133s-.151-.047-.231-.047c-.079 0-.158.016-.231.047s-.139.076-.194.133l-3.59 3.59c-.24.23-.24.61 0 .85zm6.933 8.753 2.362 2.363 9.636-13.04-.655-.655-11.343 11.332z" />
        </symbol>
        <symbol id="icon-arrow" viewBox="0 0 32 32">
            <path stroke-linecap="round" stroke-linejoin="round" stroke-width="1.3333"
                d="M9.143 16h13.714m0 0-3.429-3.429M22.857 16l-3.429 3.429M16 30.857c8.205 0 14.857-6.652 14.857-14.857S24.205 1.143 16 1.143C7.795 1.143 1.143 7.795 1.143 16S7.795 30.857 16 30.857z" />
        </symbol>
        <symbol id="icon-spoon" viewBox="0 0 32 32">
            <path
                d="M15.451 14.106c-.783-.95-1.177-2.116-1.177-3.282 0-4.324 5.181-8.642 10.362-8.642 2.86 0 5.181 2.321 5.181 5.182 0 5.182-4.318 10.364-8.646 10.364-1.166 0-2.331-.394-3.281-1.177L5.132 29.312c-.675.675-1.77.675-2.445 0s-.675-1.771 0-2.445l12.764-12.761z" />
        </symbol>
        <symbol id="icon-play" viewBox="0 0 32 32">
            <path d="M10.909 24V8.727l14.545 7.636-14.545 7.636z" />
            <path stroke-width=".7273"
                d="M31.636 16c0 8.636-7.001 15.636-15.636 15.636S.364 24.635.364 16C.364 7.364 7.365.364 16 .364S31.636 7.365 31.636 16z" />
        </symbol>
        <symbol id="icon-twitter" viewBox="0 0 32 32">
            <path
                d="M29.333 7.898c-.992.435-2.048.723-3.15.863 1.133-.677 1.998-1.74 2.405-3.022-1.057.63-2.223 1.075-3.467 1.323-1.003-1.068-2.433-1.73-3.993-1.73-3.027 0-5.463 2.457-5.463 5.468 0 .433.037.85.127 1.247-4.545-.222-8.567-2.4-11.268-5.718-.472.818-.748 1.755-.748 2.763 0 1.893.975 3.572 2.428 4.543-.878-.017-1.74-.272-2.47-.673v.06c0 2.657 1.895 4.863 4.38 5.372-.445.122-.93.18-1.433.18-.35 0-.703-.02-1.035-.093.708 2.165 2.718 3.757 5.108 3.808-1.86 1.455-4.222 2.332-6.778 2.332-.448 0-.878-.02-1.308-.075 2.422 1.562 5.292 2.453 8.387 2.453 10.06 0 15.56-8.333 15.56-15.557 0-.242-.008-.475-.02-.707 1.085-.77 1.997-1.732 2.74-2.838z" />
        </symbol>
        <symbol id="icon-facebook" viewBox="0 0 32 32">
            <path
                d="M19.52 4.64h.96v3.6h-1.2c-.48 0-.96 0-1.2.24s-.24.48-.24 1.04v1.28h2.64v3.04h-2.64v13.2h-4.08V13.76H11.6v-3.04h2.16V9.68c0-1.76.24-3.04.72-3.6.72-1.04 2.16-1.52 4.32-1.52.24.08.48.08.72.08z" />
        </symbol>
        <symbol id="icon-instagram" viewBox="0 0 32 32">
            <path
                d="M28.718 10.756c-.016-1.074-.215-2.14-.596-3.145-.667-1.716-2.024-3.073-3.743-3.737-.994-.373-2.044-.573-3.108-.596-1.367-.061-1.801-.078-5.273-.078s-3.916 0-5.274.078c-1.062.023-2.112.223-3.106.596-1.719.664-3.078 2.021-3.743 3.737-.374.992-.576 2.041-.596 3.101-.061 1.367-.08 1.8-.08 5.265s0 3.909.08 5.265c.021 1.062.222 2.109.596 3.104.667 1.714 2.024 3.071 3.744 3.735.989.386 2.04.605 3.106.639 1.369.061 1.803.079 5.274.079s3.917 0 5.274-.079c1.062-.021 2.112-.221 3.108-.595 1.719-.666 3.076-2.022 3.743-3.737.374-.993.574-2.041.596-3.104.061-1.365.08-1.798.08-5.265-.003-3.466-.003-3.906-.082-5.264zM15.99 22.531c-3.631 0-6.572-2.936-6.572-6.561s2.941-6.561 6.572-6.561c3.628 0 6.572 2.936 6.572 6.561s-2.944 6.561-6.572 6.561zm6.834-11.835c-.849 0-1.532-.684-1.532-1.53s.684-1.53 1.532-1.53c.846 0 1.531.684 1.531 1.53s-.685 1.53-1.531 1.53z" />
            <path
                d="M15.992 19.976c2.211 0 4.004-1.793 4.004-4.004s-1.793-4.004-4.004-4.004c-2.211 0-4.004 1.793-4.004 4.004s1.793 4.004 4.004 4.004z" />
        </symbol>
        <symbol id="icon-mail" viewBox="0 0 32 32">
            <path stroke-linecap="round" stroke-linejoin="round" stroke-width="2.6667"
                d="M5.333 5.333h21.333c1.467 0 2.667 1.2 2.667 2.667v16c0 1.467-1.2 2.667-2.667 2.667H5.333c-1.467 0-2.667-1.2-2.667-2.667V8c0-1.467 1.2-2.667 2.667-2.667z" />
            <path stroke-linecap="round" stroke-linejoin="round" stroke-width="2.6667"
                d="M29.333 8 16 17.333 2.667 8" />
        </symbol>
        <symbol id="icon-phone" viewBox="0 0 32 32">
            <path stroke-linecap="round" stroke-linejoin="round" stroke-width="2.6667"
                d="M29.333 22.56v4c.001.371-.075.739-.223 1.079s-.367.646-.641.897-.597.442-.948.561-.725.163-1.094.13c-4.103-.446-8.044-1.848-11.507-4.093-3.222-2.047-5.953-4.778-8-8-2.253-3.478-3.656-7.439-4.093-11.56-.033-.369.01-.74.129-1.091s.308-.673.558-.947c.25-.273.553-.492.892-.641s.705-.227 1.075-.227h4c.647-.006 1.274.223 1.765.645s.811 1.008.902 1.649c.169 1.28.482 2.537.933 3.747.179.477.218.996.112 1.495s-.353.956-.712 1.319l-1.693 1.693c1.898 3.338 4.662 6.102 8 8l1.693-1.693c.362-.359.82-.606 1.319-.712s1.017-.067 1.495.112c1.21.451 2.467.765 3.747.933.648.091 1.239.418 1.662.917s.647 1.136.631 1.79z" />
        </symbol>
        <symbol id="icon-user" viewBox="0 0 32 32">
            <path stroke-linecap="round" stroke-linejoin="round" stroke-width="2.6667"
                d="M26.667 28v-2.667c0-1.415-.562-2.771-1.562-3.771S22.748 20 21.334 20H10.667c-1.415 0-2.771.562-3.771 1.562s-1.562 2.357-1.562 3.771V28M16 14.667c2.945 0 5.333-2.388 5.333-5.333S18.945 4.001 16 4.001c-2.946 0-5.333 2.388-5.333 5.333s2.388 5.333 5.333 5.333z" />
        </symbol>
        <symbol id="icon-x-close" viewBox="0 0 32 32">
            <path stroke-linecap="round" stroke-linejoin="round" stroke-width="2.2857" d="M24 8 8 24M8 8l16 16" />
        </symbol>
    </defs>
</svg>